# Blender v2.79 (sub 0) OBJ File: ''
# www.blender.org
mtllib pacman05.mtl
o Sphere
v 0.000000 1.092417 -0.080568
v -0.000000 0.092418 0.919432
v 0.055964 0.399672 0.843312
v 0.084239 0.722861 0.626539
v 0.103132 0.938809 0.302116
v 0.109766 1.014640 -0.080568
v 0.103132 0.938809 -0.463251
v 0.084239 0.722861 -0.787674
v 0.055964 0.399672 -1.004447
v 0.153932 0.353182 0.843312
v 0.210268 0.672677 0.626539
v 0.247910 0.886156 0.302116
v 0.261128 0.961120 -0.080568
v 0.247910 0.886156 -0.463251
v 0.210268 0.672677 -0.787674
v 0.153932 0.353182 -1.004447
v 0.000000 0.092418 -1.080568
v 0.063581 -0.217609 0.843312
v 0.091856 -0.540798 0.626539
v 0.110749 -0.756746 0.302116
v 0.117383 -0.832577 -0.080568
v 0.110749 -0.756746 -0.463251
v 0.091856 -0.540798 -0.787674
v 0.063581 -0.217609 -1.004447
v 0.000000 -0.290266 0.843312
v 0.000000 -0.614689 0.626539
v 0.000000 -0.831462 0.302116
v 0.000000 -0.907582 -0.080568
v 0.000000 -0.831461 -0.463251
v 0.000000 -0.614689 -0.787674
v 0.000000 -0.290266 -1.004447
v -0.270598 -0.178180 0.843312
v -0.500000 -0.407582 0.626539
v -0.653281 -0.560864 0.302116
v -0.707106 -0.614689 -0.080568
v -0.653281 -0.560864 -0.463251
v -0.500000 -0.407582 -0.787674
v -0.270598 -0.178180 -1.004447
v -0.382683 0.092418 0.843312
v -0.707106 0.092418 0.626539
v -0.923879 0.092418 0.302116
v -1.000000 0.092418 -0.080568
v -0.923879 0.092418 -0.463251
v -0.707106 0.092418 -0.787674
v -0.382683 0.092418 -1.004447
v -0.270598 0.363016 0.843312
v -0.500000 0.592418 0.626539
v -0.653281 0.745699 0.302116
v -0.707106 0.799524 -0.080568
v -0.653281 0.745699 -0.463251
v -0.500000 0.592418 -0.787674
v -0.270598 0.363016 -1.004447
v 0.000000 0.475101 0.843312
v -0.000000 0.799524 0.626539
v -0.000000 1.016297 0.302116
v -0.000000 1.016297 -0.463251
v -0.000000 0.799524 -0.787674
v 0.000000 0.475101 -1.004447
v 0.148053 -0.180816 0.843312
v 0.189510 -0.502579 0.626539
v 0.217211 -0.717575 0.302116
v 0.226938 -0.793071 -0.080568
v 0.217211 -0.717575 -0.463251
v 0.189510 -0.502579 -0.787674
v 0.148053 -0.180816 -1.004447
vt 0.402510 0.166667
vt 0.492579 0.166667
vt 0.492579 0.320424
vt 0.402510 0.333092
vt 0.659487 0.333574
vt 0.688707 0.404119
vt 0.639962 0.452864
vt 0.569418 0.423643
vt 0.639962 0.829796
vt 0.569418 0.859016
vt 0.659487 0.949085
vt 0.688707 0.878541
vt 0.312441 0.166667
vt 0.312441 0.320424
vt 0.568936 0.166667
vt 0.568936 0.284347
vt 0.723175 0.487332
vt 0.723175 0.795328
vt 0.236085 0.166667
vt 0.236085 0.284347
vt 0.786864 0.949085
vt 0.757643 0.878541
vt 0.012909 0.727940
vt 0.000241 0.637872
vt 0.166667 0.637872
vt 0.166667 0.727940
vt 0.012910 0.547803
vt 0.048986 0.471446
vt 0.166667 0.471446
vt 0.166667 0.547803
vt 0.639962 0.521799
vt 0.048986 0.804297
vt 0.166667 0.804297
vt 0.569418 0.551020
vt 0.688707 0.570544
vt 0.641651 0.525622
vt 0.761465 0.876853
vt 0.806388 0.829796
vt 0.284830 0.999759
vt 0.248753 0.923402
vt 0.392426 0.923402
vt 0.394792 0.999759
vt 0.236085 0.833333
vt 0.248753 0.743264
vt 0.392426 0.743264
vt 0.391595 0.833333
vt 0.876932 0.859016
vt 0.793926 0.945966
vt 0.659487 0.641089
vt 0.572537 0.558082
vt 0.284830 0.666908
vt 0.394792 0.666908
vt 0.236085 0.617680
vt 0.312441 0.653757
vt 0.312441 0.500000
vt 0.236085 0.500000
vt 0.402510 0.666425
vt 0.492579 0.653757
vt 0.492579 0.500000
vt 0.402510 0.500000
vt 0.757643 0.570544
vt 0.786864 0.641089
vt 0.876932 0.731640
vt 0.806388 0.760860
vt 0.568936 0.617681
vt 0.568936 0.500000
vt 0.786864 0.641571
vt 0.757643 0.712115
vt 0.402510 0.333574
vt 0.312441 0.346243
vt 0.568936 0.382319
vt 0.492579 0.346243
vt 0.806388 0.521799
vt 0.236085 0.382319
vt 0.876932 0.551020
vt 0.825913 0.012910
vt 0.735844 0.000241
vt 0.735844 0.166667
vt 0.825913 0.166667
vt 0.645775 0.012910
vt 0.569418 0.048986
vt 0.569418 0.166667
vt 0.645775 0.166667
vt 0.806388 0.452864
vt 0.688707 0.712115
vt 0.902269 0.048986
vt 0.902269 0.166667
vt 0.876932 0.423643
vt 0.659487 0.641571
vt 0.639962 0.760860
vt 0.825913 0.320424
vt 0.902269 0.284347
vt 0.645775 0.320424
vt 0.735844 0.333092
vt 0.757643 0.404119
vt 0.786864 0.333575
vt 0.569418 0.731640
vt 0.569418 0.284347
vt 0.402510 0.000241
vt 0.492579 0.012910
vt 0.312441 0.012910
vt 0.568936 0.048986
vt 0.236085 0.048986
vt 0.069356 0.069177
vt 0.145631 0.018157
vt 0.235602 0.000241
vt 0.235602 0.470964
vt 0.145630 0.453048
vt 0.069356 0.402028
vt 0.018391 0.325671
vt 0.000494 0.235602
vt 0.018391 0.145534
vt 0.145533 0.453048
vt 0.145534 0.018157
vt 0.069177 0.069177
vt 0.018157 0.145534
vt 0.000241 0.235602
vt 0.018157 0.325671
vt 0.069177 0.402028
vn 0.5813 0.7971 0.1633
vn 0.5045 0.4650 0.7275
vn 0.5045 0.4650 -0.7275
vn 0.5813 0.7971 -0.1633
vn 0.5605 0.6813 0.4707
vn 0.2543 0.1887 0.9485
vn 0.2543 0.1887 -0.9485
vn 0.5605 0.6813 -0.4707
vn 0.2262 0.5241 -0.8211
vn 0.3313 0.9241 -0.1907
vn 0.2977 0.7840 0.5448
vn 0.1049 0.2211 0.9696
vn 0.1049 0.2211 -0.9696
vn 0.2977 0.7840 -0.5448
vn 0.3313 0.9241 0.1907
vn 0.2262 0.5241 0.8211
vn 0.0953 -0.2189 0.9711
vn 0.0953 -0.2189 -0.9711
vn 0.2977 -0.7852 0.5429
vn 0.3360 -0.9226 -0.1896
vn 0.2176 -0.5282 -0.8208
vn 0.2176 -0.5282 0.8208
vn 0.3360 -0.9226 0.1896
vn 0.2977 -0.7852 -0.5429
vn 0.5171 -0.7050 -0.4853
vn 0.5409 -0.8241 0.1683
vn 0.4543 -0.4818 0.7493
vn 0.4543 -0.4818 -0.7493
vn 0.5409 -0.8241 -0.1683
vn 0.5171 -0.7050 0.4853
vn 0.2176 -0.1904 0.9573
vn 0.2176 -0.1904 -0.9573
vn -0.2243 -0.5414 -0.8103
vn -0.3764 -0.9087 -0.1807
vn -0.3256 -0.7862 0.5253
vn -0.0805 -0.1945 0.9776
vn -0.0805 -0.1945 -0.9776
vn -0.3256 -0.7862 -0.5253
vn -0.3764 -0.9087 0.1807
vn -0.2243 -0.5414 0.8103
vn -0.9087 -0.3764 -0.1807
vn -0.7862 -0.3256 0.5253
vn -0.1945 -0.0805 0.9776
vn -0.1945 -0.0805 -0.9776
vn -0.7862 -0.3256 -0.5253
vn -0.9087 -0.3764 0.1807
vn -0.5414 -0.2243 0.8103
vn -0.5414 -0.2243 -0.8103
vn -0.1945 0.0805 -0.9776
vn -0.7862 0.3256 -0.5253
vn -0.9087 0.3764 0.1807
vn -0.5414 0.2243 0.8103
vn -0.5414 0.2243 -0.8103
vn -0.9087 0.3764 -0.1807
vn -0.7862 0.3256 0.5253
vn -0.1945 0.0805 0.9776
vn -0.3764 0.9087 0.1807
vn -0.2243 0.5414 0.8103
vn -0.2243 0.5414 -0.8103
vn -0.3764 0.9087 -0.1807
vn -0.3256 0.7862 0.5253
vn -0.0805 0.1945 0.9776
vn -0.0805 0.1945 -0.9776
vn -0.3256 0.7862 -0.5253
vn 0.9594 0.2822 0.0000
vn 0.9473 -0.3203 -0.0000
usemtl Material.001
s off
f 1/1/1 55/2/1 5/3/1 6/4/1
f 54/5/2 53/6/2 3/7/2 4/8/2
f 58/9/3 57/10/3 8/11/3 9/12/3
f 56/13/4 1/1/4 6/4/4 7/14/4
f 55/2/5 54/15/5 4/16/5 5/3/5
f 53/6/6 2/17/6 3/7/6
f 17/18/7 58/9/7 9/12/7
f 57/19/8 56/13/8 7/14/8 8/20/8
f 9/12/9 8/11/9 15/21/9 16/22/9
f 7/23/10 6/24/10 13/25/10 14/26/10
f 5/27/11 4/28/11 11/29/11 12/30/11
f 3/7/12 2/17/12 10/31/12
f 17/18/13 9/12/13 16/22/13
f 8/32/14 7/23/14 14/26/14 15/33/14
f 6/24/15 5/27/15 12/30/15 13/25/15
f 4/8/16 3/7/16 10/31/16 11/34/16
f 18/35/17 59/36/17 2/17/17
f 17/18/18 65/37/18 24/38/18
f 19/39/19 20/40/19 61/41/19 60/42/19
f 21/43/20 22/44/20 63/45/20 62/46/20
f 23/47/21 24/38/21 65/37/21 64/48/21
f 18/35/22 19/49/22 60/50/22 59/36/22
f 20/40/23 21/43/23 62/46/23 61/41/23
f 22/44/24 23/51/24 64/52/24 63/45/24
f 23/53/25 22/54/25 29/55/25 30/56/25
f 21/57/26 20/58/26 27/59/26 28/60/26
f 19/49/27 18/35/27 25/61/27 26/62/27
f 24/38/28 23/47/28 30/63/28 31/64/28
f 22/54/29 21/57/29 28/60/29 29/55/29
f 20/58/30 19/65/30 26/66/30 27/59/30
f 18/35/31 2/17/31 25/61/31
f 17/18/32 24/38/32 31/64/32
f 31/64/33 30/63/33 37/67/33 38/68/33
f 29/55/34 28/60/34 35/69/34 36/70/34
f 27/59/35 26/66/35 33/71/35 34/72/35
f 25/61/36 2/17/36 32/73/36
f 17/18/37 31/64/37 38/68/37
f 30/56/38 29/55/38 36/70/38 37/74/38
f 28/60/39 27/59/39 34/72/39 35/69/39
f 26/62/40 25/61/40 32/73/40 33/75/40
f 36/76/41 35/77/41 42/78/41 43/79/41
f 34/80/42 33/81/42 40/82/42 41/83/42
f 32/73/43 2/17/43 39/84/43
f 17/18/44 38/68/44 45/85/44
f 37/86/45 36/76/45 43/79/45 44/87/45
f 35/77/46 34/80/46 41/83/46 42/78/46
f 33/75/47 32/73/47 39/84/47 40/88/47
f 38/68/48 37/67/48 44/89/48 45/85/48
f 17/18/49 45/85/49 52/90/49
f 44/87/50 43/79/50 50/91/50 51/92/50
f 42/78/51 41/83/51 48/93/51 49/94/51
f 40/88/52 39/84/52 46/95/52 47/96/52
f 45/85/53 44/89/53 51/97/53 52/90/53
f 43/79/54 42/78/54 49/94/54 50/91/54
f 41/83/55 40/82/55 47/98/55 48/93/55
f 39/84/56 2/17/56 46/95/56
f 49/99/57 48/100/57 55/2/57 1/1/57
f 47/96/58 46/95/58 53/6/58 54/5/58
f 52/90/59 51/97/59 57/10/59 58/9/59
f 50/101/60 49/99/60 1/1/60 56/13/60
f 48/100/61 47/102/61 54/15/61 55/2/61
f 46/95/62 2/17/62 53/6/62
f 17/18/63 52/90/63 58/9/63
f 51/103/64 50/101/64 56/13/64 57/19/64
f 64/104/65 65/105/65 17/106/65 2/107/65 59/108/65 60/109/65 61/110/65 62/111/65 63/112/65
f 10/113/66 2/107/66 17/106/66 16/114/66 15/115/66 14/116/66 13/117/66 12/118/66 11/119/66
